<?xml version="1.0" standalone="no"?>
<!DOCTYPE svg PUBLIC "-//W3C//DTD SVG 20010904//EN"
 "http://www.w3.org/TR/2001/REC-SVG-20010904/DTD/svg10.dtd">
<svg version="1.0" xmlns="http://www.w3.org/2000/svg"
 width="700.000000pt" height="700.000000pt" viewBox="0 0 700.000000 700.000000"
 preserveAspectRatio="xMidYMid meet">
<metadata>
Created by potrace 1.11, written by Peter Selinger 2001-2013
</metadata>
<g transform="translate(0.000000,700.000000) scale(0.100000,-0.100000)"
fill="#000000" stroke="none">
<path d="M1003 6989 c-168 -22 -368 -98 -516 -196 -93 -62 -225 -188 -296
-283 -63 -84 -129 -205 -166 -305 l-25 -65 0 -2640 0 -2640 25 -65 c149 -397
482 -680 906 -772 80 -17 204 -18 2519 -18 2318 0 2439 1 2520 18 253 55 449
163 630 346 191 194 307 432 339 696 15 127 15 4743 0 4870 -49 398 -308 763
-663 935 -110 53 -180 79 -296 106 -71 17 -201 18 -2495 20 -1331 1 -2448 -2
-2482 -7z m1317 -250 c267 -33 483 -111 690 -248 114 -75 289 -251 368 -370
35 -52 85 -139 112 -195 47 -98 117 -283 109 -290 -4 -3 -482 -116 -492 -116
-2 0 -17 35 -32 78 -179 505 -533 742 -1074 719 -337 -14 -584 -113 -794 -316
-179 -173 -276 -356 -351 -662 -48 -198 -61 -316 -60 -559 1 -564 132 -976
390 -1234 313 -313 846 -423 1276 -262 274 103 491 321 612 618 l36 87 0 181
0 181 1038 -4 c933 -3 1047 -5 1142 -21 293 -49 458 -122 603 -270 331 -335
389 -930 129 -1313 -99 -146 -216 -245 -387 -328 -145 -71 -259 -106 -468
-146 l-59 -11 98 -55 c130 -73 189 -120 309 -245 174 -179 195 -211 907 -1325
l78 -123 -319 0 -319 0 -268 422 c-600 946 -732 1110 -976 1222 -121 56 -139
58 -585 63 l-413 5 0 -856 0 -856 -255 0 -255 0 0 1306 0 1305 -42 -34 c-154
-125 -393 -229 -639 -279 -102 -21 -141 -23 -374 -23 -224 0 -277 4 -383 23
-410 73 -695 228 -924 502 -322 384 -495 961 -475 1580 14 407 95 722 265
1022 253 447 704 741 1264 822 114 17 403 20 518 5z"/>
<path d="M3626 3915 c-3 -9 -6 -295 -6 -636 l0 -619 643 0 c371 0 680 4 732
10 231 27 366 82 486 200 134 132 185 266 176 470 -5 136 -27 204 -97 307 -84
123 -203 201 -385 250 l-100 27 -721 4 c-660 3 -722 2 -728 -13z"/>
</g>
</svg>
